<?xml version="1.0" encoding="utf-8"?>
<!-- Generator: Adobe Illustrator 16.0.0, SVG Export Plug-In . SVG Version: 6.00 Build 0)  -->
<!DOCTYPE svg PUBLIC "-//W3C//DTD SVG 1.1//EN" "http://www.w3.org/Graphics/SVG/1.1/DTD/svg11.dtd">
<svg version="1.1" id="Layer_1" xmlns="http://www.w3.org/2000/svg" xmlns:xlink="http://www.w3.org/1999/xlink" x="0px" y="0px"
	 width="54.856px" height="65.463px" viewBox="0 0 54.856 65.463" enable-background="new 0 0 54.856 65.463" xml:space="preserve">
<g>
	<path fill="#0478A5" d="M52.571,16.32v2.286c0,0.334-0.107,0.607-0.321,0.821c-0.214,0.214-0.488,0.322-0.821,0.322H48v33.857
		c0,1.977-0.56,3.684-1.679,5.125c-1.119,1.44-2.464,2.161-4.036,2.161H12.571c-1.571,0-2.917-0.696-4.036-2.089
		c-1.12-1.393-1.679-3.077-1.679-5.053v-34H3.429c-0.334,0-0.607-0.107-0.822-0.322c-0.214-0.214-0.321-0.487-0.321-0.821V16.32
		c0-0.333,0.107-0.607,0.321-0.821s0.488-0.322,0.822-0.322h11.036l2.5-5.964c0.357-0.881,1-1.631,1.928-2.25
		c0.929-0.619,1.869-0.929,2.822-0.929h11.428c0.952,0,1.893,0.31,2.822,0.929c0.928,0.619,1.571,1.369,1.928,2.25l2.5,5.964h11.036
		c0.333,0,0.607,0.107,0.821,0.322S52.571,15.987,52.571,16.32z M43.429,53.606V19.749h-32v33.857c0,0.524,0.083,1.006,0.25,1.446
		c0.166,0.441,0.339,0.763,0.518,0.964c0.179,0.203,0.304,0.304,0.375,0.304h29.714c0.071,0,0.196-0.101,0.375-0.304
		c0.179-0.202,0.351-0.523,0.518-0.964C43.345,54.612,43.429,54.13,43.429,53.606z M20.571,27.749V48.32
		c0,0.333-0.107,0.607-0.321,0.821s-0.488,0.322-0.821,0.322h-2.286c-0.333,0-0.607-0.107-0.821-0.322S16,48.654,16,48.32V27.749
		c0-0.333,0.107-0.607,0.321-0.822c0.214-0.214,0.488-0.321,0.821-0.321h2.286c0.333,0,0.607,0.107,0.821,0.321
		C20.464,27.142,20.571,27.416,20.571,27.749z M19.429,15.177h16l-1.714-4.178c-0.167-0.214-0.37-0.345-0.607-0.393H21.786
		c-0.238,0.048-0.441,0.179-0.607,0.393L19.429,15.177z M29.714,27.749V48.32c0,0.333-0.107,0.607-0.322,0.821
		c-0.214,0.214-0.488,0.322-0.821,0.322h-2.286c-0.333,0-0.607-0.107-0.821-0.322s-0.322-0.488-0.322-0.821V27.749
		c0-0.333,0.107-0.607,0.322-0.822c0.214-0.214,0.488-0.321,0.821-0.321h2.286c0.333,0,0.607,0.107,0.821,0.321
		C29.607,27.142,29.714,27.416,29.714,27.749z M38.857,27.749V48.32c0,0.333-0.107,0.607-0.321,0.821s-0.488,0.322-0.821,0.322
		h-2.286c-0.334,0-0.607-0.107-0.822-0.322s-0.321-0.488-0.321-0.821V27.749c0-0.333,0.107-0.607,0.321-0.822
		c0.214-0.214,0.488-0.321,0.822-0.321h2.286c0.333,0,0.607,0.107,0.821,0.321C38.75,27.142,38.857,27.416,38.857,27.749z"/>
</g>
</svg>
