<?xml version="1.0" encoding="utf-8"?>
<!-- Generator: Adobe Illustrator 16.0.0, SVG Export Plug-In . SVG Version: 6.00 Build 0)  -->
<!DOCTYPE svg PUBLIC "-//W3C//DTD SVG 1.1//EN" "http://www.w3.org/Graphics/SVG/1.1/DTD/svg11.dtd">
<svg version="1.1" id="Layer_1" xmlns="http://www.w3.org/2000/svg" xmlns:xlink="http://www.w3.org/1999/xlink" x="0px" y="0px"
	 width="54.856px" height="65.463px" viewBox="0 0 54.856 65.463" enable-background="new 0 0 54.856 65.463" xml:space="preserve">
<g>
	<g>
		<path fill="#0478A5" d="M54.857,28.856c0,2.12-0.583,4.06-1.75,5.821c0.214,0.786,0.322,1.607,0.322,2.464
			c0,1.834-0.453,3.548-1.357,5.143c0.072,0.5,0.107,1.012,0.107,1.536c0,2.405-0.714,4.524-2.143,6.357
			c0.023,3.31-0.988,5.923-3.036,7.839c-2.048,1.917-4.75,2.875-8.107,2.875h-1.286h-3.321c-2.286,0-4.542-0.268-6.768-0.803
			c-2.227-0.536-4.804-1.316-7.732-2.339c-2.762-0.953-4.405-1.429-4.929-1.429H4.571c-1.262,0-2.339-0.446-3.232-1.339
			C0.446,54.088,0,53.011,0,51.749V28.892c0-1.262,0.446-2.339,1.339-3.232c0.893-0.893,1.97-1.339,3.232-1.339h9.786
			c0.857-0.571,2.488-2.417,4.893-5.536c1.38-1.786,2.655-3.309,3.821-4.571c0.572-0.595,0.994-1.613,1.268-3.054
			c0.273-1.44,0.637-2.946,1.089-4.518c0.452-1.571,1.19-2.857,2.214-3.857c0.928-0.881,2-1.321,3.214-1.321
			c2,0,3.798,0.387,5.393,1.161c1.595,0.774,2.809,1.982,3.643,3.625c0.833,1.643,1.25,3.857,1.25,6.643
			c0,2.214-0.572,4.5-1.714,6.857h6.286c2.476,0,4.619,0.905,6.429,2.714C53.952,24.273,54.857,26.404,54.857,28.856z M8.464,51.07
			c0.452-0.452,0.679-0.988,0.679-1.607s-0.227-1.155-0.679-1.607c-0.453-0.452-0.988-0.679-1.607-0.679s-1.155,0.227-1.607,0.679
			c-0.453,0.453-0.679,0.988-0.679,1.607s0.226,1.155,0.679,1.607c0.452,0.453,0.988,0.679,1.607,0.679S8.012,51.523,8.464,51.07z
			 M50.286,28.892c0-1.214-0.464-2.279-1.393-3.196c-0.929-0.917-1.988-1.375-3.179-1.375H33.143c0-1.38,0.571-3.28,1.714-5.696
			c1.143-2.417,1.714-4.327,1.714-5.732c0-2.333-0.381-4.059-1.143-5.178c-0.762-1.119-2.286-1.679-4.572-1.679
			C30.238,6.654,29.786,7.666,29.5,9.07c-0.286,1.405-0.649,2.899-1.089,4.482c-0.441,1.584-1.149,2.888-2.125,3.911
			c-0.524,0.548-1.441,1.631-2.75,3.25c-0.095,0.119-0.369,0.477-0.821,1.071c-0.453,0.595-0.828,1.083-1.125,1.464
			c-0.298,0.381-0.709,0.887-1.232,1.518c-0.524,0.631-1,1.155-1.428,1.572c-0.429,0.417-0.887,0.839-1.375,1.268
			c-0.488,0.429-0.964,0.75-1.429,0.964s-0.887,0.321-1.268,0.321h-1.143v22.857h1.143c0.31,0,0.685,0.036,1.125,0.107
			s0.833,0.149,1.179,0.232c0.345,0.083,0.797,0.214,1.357,0.393c0.559,0.179,0.976,0.316,1.25,0.411
			c0.273,0.096,0.696,0.245,1.268,0.447s0.917,0.327,1.036,0.375c5.023,1.738,9.095,2.607,12.214,2.607h4.321
			c4.572,0,6.857-1.988,6.857-5.964c0-0.619-0.06-1.286-0.179-2c0.714-0.38,1.28-1.005,1.696-1.875
			c0.417-0.869,0.625-1.744,0.625-2.625c0-0.88-0.214-1.702-0.643-2.464c1.262-1.19,1.893-2.607,1.893-4.25
			c0-0.595-0.119-1.255-0.357-1.982c-0.238-0.726-0.536-1.292-0.893-1.696c0.762-0.023,1.398-0.583,1.911-1.679
			C50.03,30.69,50.286,29.726,50.286,28.892z"/>
	</g>
</g>
</svg>
