<?xml version="1.0" encoding="utf-8"?>
<!-- Generator: Adobe Illustrator 16.0.0, SVG Export Plug-In . SVG Version: 6.00 Build 0)  -->
<!DOCTYPE svg PUBLIC "-//W3C//DTD SVG 1.1//EN" "http://www.w3.org/Graphics/SVG/1.1/DTD/svg11.dtd">
<svg version="1.1" id="Layer_1" xmlns="http://www.w3.org/2000/svg" xmlns:xlink="http://www.w3.org/1999/xlink" x="0px" y="0px"
	 width="54.856px" height="65.463px" viewBox="0 0 54.856 65.463" enable-background="new 0 0 54.856 65.463" xml:space="preserve">
<g>
	<path fill="#0478A5" d="M55.964,33.749l-2.214,2.643c-0.191,0.214-0.441,0.345-0.75,0.393h-0.107c-0.31,0-0.56-0.083-0.75-0.25
		L27.428,15.928L2.714,36.535c-0.286,0.19-0.571,0.274-0.857,0.25c-0.31-0.048-0.56-0.179-0.75-0.393l-2.214-2.643
		c-0.191-0.237-0.274-0.518-0.25-0.839c0.023-0.322,0.154-0.577,0.393-0.768l25.679-21.393c0.762-0.619,1.666-0.928,2.714-0.928
		s1.952,0.31,2.715,0.928l8.714,7.286v-6.964c0-0.333,0.107-0.607,0.321-0.822c0.215-0.214,0.488-0.321,0.822-0.321h6.856
		c0.333,0,0.607,0.107,0.821,0.321C47.893,10.463,48,10.737,48,11.071v14.571l7.821,6.5c0.237,0.191,0.368,0.446,0.393,0.768
		C56.237,33.231,56.154,33.512,55.964,33.749z M48,36.213v17.143c0,0.619-0.227,1.155-0.679,1.607
		c-0.453,0.453-0.988,0.679-1.607,0.679H32V41.928h-9.144v13.714H9.143c-0.619,0-1.155-0.226-1.607-0.679
		c-0.452-0.452-0.679-0.988-0.679-1.607V36.213c0-0.023,0.006-0.059,0.019-0.107c0.012-0.047,0.018-0.083,0.018-0.107l20.535-16.928
		l20.536,16.928C47.987,36.047,48,36.119,48,36.213z"/>
</g>
</svg>
