<?xml version="1.0" encoding="utf-8"?>
<!-- Generator: Adobe Illustrator 16.0.0, SVG Export Plug-In . SVG Version: 6.00 Build 0)  -->
<!DOCTYPE svg PUBLIC "-//W3C//DTD SVG 1.1//EN" "http://www.w3.org/Graphics/SVG/1.1/DTD/svg11.dtd">
<svg version="1.1" id="Layer_1" xmlns="http://www.w3.org/2000/svg" xmlns:xlink="http://www.w3.org/1999/xlink" x="0px" y="0px"
	 width="57.579px" height="65.333px" viewBox="0 0 57.579 65.333" enable-background="new 0 0 57.579 65.333" xml:space="preserve">
<g>
	<path fill="#0478A5" d="M28.789,19.404L8.254,36.333c0,0.024-0.006,0.06-0.018,0.107c-0.013,0.048-0.019,0.083-0.019,0.107V53.69
		c0,0.619,0.227,1.155,0.679,1.607c0.452,0.453,0.988,0.679,1.607,0.679h13.714V42.261h9.144v13.714h13.714
		c0.619,0,1.154-0.226,1.607-0.679c0.452-0.452,0.679-0.988,0.679-1.607V36.547c0-0.095-0.013-0.166-0.036-0.214L28.789,19.404z"/>
	<path fill="#0478A5" d="M57.183,32.476l-7.821-6.5V11.404c0-0.333-0.107-0.607-0.322-0.822c-0.214-0.214-0.488-0.321-0.821-0.321
		h-6.856c-0.334,0-0.607,0.107-0.822,0.321c-0.214,0.214-0.321,0.488-0.321,0.822v6.964l-8.714-7.286
		c-0.763-0.619-1.667-0.928-2.715-0.928s-1.952,0.31-2.714,0.928L0.396,32.476c-0.238,0.191-0.369,0.446-0.393,0.768
		c-0.024,0.321,0.059,0.602,0.25,0.839l2.214,2.643c0.19,0.214,0.44,0.345,0.75,0.393c0.286,0.024,0.571-0.06,0.857-0.25
		l24.714-20.607l24.715,20.607c0.19,0.167,0.44,0.25,0.75,0.25h0.107c0.309-0.048,0.559-0.179,0.75-0.393l2.214-2.643
		c0.19-0.237,0.273-0.518,0.25-0.839C57.551,32.922,57.42,32.667,57.183,32.476z"/>
</g>
</svg>
