<?xml version="1.0" encoding="utf-8"?>
<!-- Generator: Adobe Illustrator 16.0.0, SVG Export Plug-In . SVG Version: 6.00 Build 0)  -->
<!DOCTYPE svg PUBLIC "-//W3C//DTD SVG 1.1//EN" "http://www.w3.org/Graphics/SVG/1.1/DTD/svg11.dtd">
<svg version="1.1" id="Layer_1" xmlns="http://www.w3.org/2000/svg" xmlns:xlink="http://www.w3.org/1999/xlink" x="0px" y="0px"
	 width="458.242px" height="234.066px" viewBox="0 0 458.242 234.066" enable-background="new 0 0 458.242 234.066"
	 xml:space="preserve">
<g>
	<g>
		<path fill="#9ACDF7" d="M114.835,15.44c54.201,0,98.297,44.096,98.297,98.297s-44.096,98.297-98.297,98.297
			s-98.297-44.096-98.297-98.297S60.634,15.44,114.835,15.44 M114.835,10.44c-57.049,0-103.297,46.247-103.297,103.297
			c0,57.049,46.248,103.297,103.297,103.297c57.05,0,103.297-46.248,103.297-103.297C218.132,56.687,171.885,10.44,114.835,10.44
			L114.835,10.44z"/>
	</g>
	<g>
		<path fill-rule="evenodd" clip-rule="evenodd" fill="#487699" d="M179.38,109.737c3.152-4.46,4.251-9.482,3.593-14.904
			c-0.392-3.229-1.502-6.29-3.442-8.774c-3.417-4.375-7.965-6.978-13.704-7.24c-4.837-0.221-9.211,1.178-13.002,3.973
			c-2.013,1.484-3.563,3.225-6.172,1.363c-0.308-0.22-0.811-0.151-1.211-0.259c-5.206-1.397-10.496-2.263-15.873-2.667
			c-4.197-0.315-8.382-0.278-12.571,0.059c-1.214,0.097-2.245,0.014-2-1.715c0.114-0.804-0.048-1.671-0.145-2.475
			c-0.592-4.934-0.663-9.838,0.438-14.708c1.058-4.681,5.27-6.95,9.333-3.907c1.037,0.777,2.121,1.498,3.116,2.325
			c3.26,2.708,6.75,4.783,11.21,4.544c0.672-0.036,1.205-0.042,1.079-0.883c-0.465-3.118-0.575-6.26-0.703-9.401
			c-0.016-0.375-0.026-0.674-0.6-0.652c-1.463,0.057-2.523-0.814-3.531-1.727c-4.338-3.927-9.065-6.879-15.263-6.438
			c-4.227,0.3-7.859,1.789-10.786,4.921c-2.819,3.017-4.188,6.708-4.937,10.655c-1.274,6.722-0.707,13.463,0.048,20.186
			c0.095,0.848,0.056,1.004-0.796,1.192c-2.44,0.538-4.903,1.083-7.244,1.936c-3.067,1.117-6.2,2.085-9.146,3.524
			c-2.256,1.102-4.588,2.075-6.749,3.338c-2.574,1.504-5.016,3.237-7.481,4.919c-0.478,0.325-0.724,0.094-1.119-0.072
			c-3.285-1.378-6.653-2.385-9.955-2.209c-4.182,0.154-7.641,1.366-10.851,3.496c-2.935,1.947-4.955,4.708-6.191,7.811
			c-1.67,4.193-1.782,8.597-0.292,13.021c1.405,4.17,3.42,7.812,7.146,10.338c0.382,0.259,0.849,0.48,0.805,1.208
			c-0.303,4.974,0.644,9.701,2.58,14.315c2.01,4.788,5.032,8.767,8.713,12.341c6.631,6.438,14.707,10.315,23.403,12.919
			c6.076,1.819,12.352,2.772,18.727,3.019c3.823,0.147,7.645,0.099,11.441-0.171c3.511-0.25,7.01-0.862,10.472-1.533
			c3.049-0.59,6.089-1.327,9.04-2.282c3.07-0.994,6.09-2.165,9.078-3.413c2.37-0.989,4.672-2.136,6.871-3.396
			c4.611-2.642,8.975-5.663,12.943-9.267c4.279-3.886,7.906-8.256,10.671-13.302c2.549-4.653,4.207-9.599,4.577-14.975
			c0.272-3.956-0.16-7.76-1.11-11.588C179.531,112.131,178.369,111.168,179.38,109.737z M54.441,119.906
			c-2.213-3.524-3.017-7.071-1.513-10.662c2.02-4.823,6.48-6.334,11.281-5.667c0.22,0.03,0.421-0.003,0.477,0.212
			c0.095,0.366-0.193,0.557-0.432,0.769c-1.76,1.563-3.095,3.487-4.481,5.36C57.561,112.909,56.018,116.274,54.441,119.906z
			 M165.521,140.178c-2.956,3.928-6.597,7.101-10.461,10.09c-3.529,2.731-7.419,4.852-11.391,6.768
			c-2.776,1.34-5.7,2.445-8.685,3.369c-3.93,1.217-7.889,2.233-11.947,2.894c-3.009,0.49-6.026,0.825-9.076,0.958
			c-2.621,0.114-5.227,0.102-7.849,0c-2.625-0.103-5.223-0.357-7.802-0.76c-4.523-0.707-8.994-1.704-13.248-3.431
			c-6.489-2.636-12.468-5.978-17.245-11.351c-3.746-4.212-6.084-8.962-6.707-14.449c-0.43-3.783,0.319-7.526,1.67-11.157
			c1.162-3.128,2.666-6.035,4.647-8.69c2.99-4.006,6.654-7.324,10.633-10.335c2.517-1.904,5.204-3.521,7.94-5.052
			c2.086-1.166,4.269-2.181,6.475-3.103c4.337-1.813,8.812-3.223,13.419-4.192c3.854-0.811,7.724-1.431,11.668-1.677
			c3.683-0.229,7.34-0.248,11.027-0.043c4.191,0.233,8.315,0.832,12.364,1.838c6.729,1.674,13.045,4.296,18.732,8.398
			c4.458,3.216,8.085,7.126,10.447,12.046c1.345,2.801,2.175,5.868,2.114,7.975C172.329,128.462,169.723,134.593,165.521,140.178z
			 M173.642,101.434c-3.831-5.233-9.176-8.659-14.646-12.203c4.596-2.439,9.708-2.018,12.519,0.917
			C174.509,93.278,175.081,98.776,173.642,101.434z"/>
		<path fill-rule="evenodd" clip-rule="evenodd" fill="#487699" d="M156.069,72.705c8.376-0.303,15.451-6.658,15.161-16.033
			c-0.252-8.136-6.736-14.967-15.649-14.813c-8.559,0.147-15.714,6.792-15.124,16.575C140.921,66.137,147.469,72.644,156.069,72.705
			z M155.355,47.347c5.836-0.232,10.165,3.863,10.312,9.802c0.258,5.178-4.184,9.894-9.251,10.038
			c-6.245,0.178-10.518-4.373-10.498-9.926C145.938,51.677,150.145,47.554,155.355,47.347z"/>
		<path fill-rule="evenodd" clip-rule="evenodd" fill="#487699" d="M136.588,105.732c-4.717,0.108-9.566,4.291-9.321,9.888
			c-0.015,5.823,4.229,10.035,10.057,9.944c5.482-0.084,9.591-4.384,9.672-9.839C147.079,110.09,142.612,105.594,136.588,105.732z"
			/>
		<path fill-rule="evenodd" clip-rule="evenodd" fill="#487699" d="M103.642,122.375c0.135-5.017-4.084-9.879-9.803-9.928
			c-5.368-0.145-9.792,4.161-9.997,9.231c-0.238,5.888,3.749,10.481,9.933,10.558C98.991,132.302,103.488,128.083,103.642,122.375z"
			/>
		<path fill-rule="evenodd" clip-rule="evenodd" fill="#487699" d="M92.54,147.194c8.667,9.093,19.369,10.99,31.267,8.881
			c9.073-1.608,20.561-10.557,21.944-17.428c-7.552,6.284-16.399,9.126-25.704,10.57C110.776,150.655,101.535,150.422,92.54,147.194
			z"/>
	</g>
</g>
<g>
	<path fill="#A82304" d="M212.632,45.412c-3.729,1.547-6.656,3.888-8.783,7.022c-2.127,3.135-3.19,6.995-3.19,11.579
		c0,1.077,0.062,1.954,0.187,2.631c0.125,0.677,0.262,1.215,0.415,1.616c0.151,0.4,0.29,0.711,0.414,0.932
		c0.125,0.222,0.187,0.415,0.187,0.58c-1.464,0-2.762-0.145-3.894-0.435c-1.133-0.29-2.079-0.752-2.838-1.388
		c-0.76-0.635-1.34-1.477-1.74-2.527c-0.401-1.049-0.601-2.347-0.601-3.894c0-1.878,0.407-3.729,1.222-5.551
		c0.814-1.823,1.933-3.548,3.355-5.178c1.422-1.629,3.093-3.134,5.013-4.516c1.919-1.381,3.977-2.575,6.173-3.583
		c2.195-1.008,4.488-1.795,6.877-2.361c2.388-0.566,4.771-0.849,7.146-0.849h3.397l-12.718,60.234
		c-0.69,3.231-1.588,6.145-2.692,8.741c-1.105,2.595-2.534,4.798-4.288,6.607c-1.754,1.809-3.88,3.196-6.379,4.163
		c-2.5,0.967-5.489,1.45-8.969,1.45c-2.044,0-3.846-0.29-5.406-0.87c-1.561-0.58-2.873-1.395-3.936-2.444
		c-1.063-1.05-1.864-2.307-2.403-3.77c-0.539-1.464-0.808-3.093-0.808-4.888c0-1.437,0.228-2.838,0.684-4.205
		c0.456-1.367,1.119-2.575,1.989-3.625c0.87-1.049,1.947-1.899,3.231-2.548c1.285-0.649,2.769-0.974,4.454-0.974
		c0.855,0,1.767,0.042,2.734,0.125c0.966,0.083,1.864,0.311,2.692,0.683c0.829,0.373,1.512,0.939,2.051,1.699
		c0.539,0.76,0.808,1.816,0.808,3.169c0,0.995-0.166,2.126-0.497,3.397c-0.525-0.442-1.008-0.808-1.45-1.098
		c-0.442-0.29-0.864-0.518-1.264-0.684c-0.401-0.166-0.794-0.276-1.181-0.332c-0.387-0.056-0.787-0.083-1.201-0.083
		c-0.995,0-1.864,0.179-2.61,0.539c-0.746,0.358-1.361,0.829-1.844,1.408c-0.483,0.58-0.849,1.25-1.098,2.009
		c-0.249,0.759-0.373,1.526-0.373,2.299c0,1.104,0.187,2.036,0.56,2.796c0.373,0.759,0.842,1.374,1.408,1.843
		c0.566,0.469,1.188,0.808,1.864,1.015c0.676,0.207,1.319,0.311,1.926,0.311c0.938,0,1.795-0.131,2.568-0.394
		c0.773-0.263,1.484-0.766,2.134-1.512c0.648-0.746,1.249-1.802,1.802-3.169c0.552-1.367,1.077-3.156,1.574-5.365L212.632,45.412z"
		/>
	<path fill="#A82304" d="M270.091,70.889c-1.657,1.74-3.798,3.218-6.421,4.433c-2.625,1.216-5.497,2.085-8.617,2.61
		c-0.331,3.922-1.084,7.457-2.257,10.605c-1.174,3.148-2.659,5.828-4.454,8.037c-1.795,2.21-3.853,3.908-6.172,5.096
		c-2.32,1.188-4.778,1.781-7.374,1.781c-1.961,0-3.777-0.242-5.448-0.725c-1.671-0.483-3.107-1.256-4.309-2.32
		c-1.201-1.063-2.14-2.444-2.817-4.143c-0.676-1.699-1.015-3.763-1.015-6.193c0-1.657,0.173-3.542,0.518-5.655
		c0.346-2.113,0.897-4.288,1.657-6.525c0.759-2.237,1.74-4.425,2.941-6.566c1.201-2.14,2.665-4.053,4.391-5.738
		c1.726-1.684,3.721-3.045,5.986-4.081s4.847-1.553,7.747-1.553c7.263,0,10.895,4.516,10.895,13.546v0.083
		c0.138,0.056,0.27,0.083,0.394,0.083c0.125,0,0.296,0,0.518,0c0.994,0,2.064-0.145,3.21-0.435c1.146-0.29,2.299-0.669,3.459-1.14
		c1.16-0.469,2.292-1.015,3.397-1.636c1.104-0.621,2.113-1.249,3.024-1.885L270.091,70.889z M248.01,78.18
		c-0.884-0.221-1.485-0.656-1.802-1.305c-0.318-0.649-0.477-1.401-0.477-2.258c0-1.187,0.241-2.161,0.725-2.921
		c0.483-0.759,1.125-1.318,1.926-1.678c-0.056-0.911-0.152-1.678-0.29-2.299c-0.139-0.622-0.332-1.132-0.58-1.533
		c-0.249-0.4-0.559-0.683-0.932-0.849c-0.373-0.166-0.849-0.249-1.429-0.249c-1.022,0-2.002,0.394-2.941,1.181
		s-1.83,1.83-2.672,3.128c-0.843,1.298-1.616,2.783-2.32,4.453c-0.704,1.671-1.305,3.391-1.802,5.158
		c-0.497,1.768-0.884,3.515-1.16,5.241c-0.276,1.726-0.415,3.293-0.415,4.702s0.076,2.555,0.228,3.438
		c0.151,0.884,0.4,1.582,0.746,2.092c0.345,0.512,0.793,0.864,1.347,1.057c0.552,0.193,1.229,0.29,2.03,0.29
		c1.021,0,2.05-0.456,3.086-1.367c1.036-0.911,1.995-2.154,2.879-3.729c0.884-1.574,1.664-3.438,2.341-5.592
		C247.175,82.986,247.679,80.666,248.01,78.18z"/>
	<path fill="#A82304" d="M307.168,87.916c-1.188,3.562-2.493,6.387-3.915,8.472c-1.423,2.085-2.838,3.66-4.246,4.723
		c-1.409,1.063-2.769,1.747-4.081,2.051c-1.312,0.304-2.438,0.456-3.376,0.456c-3.535,0-6.2-0.835-7.995-2.506
		c-1.796-1.67-2.693-4.053-2.693-7.146c0-1.326,0.166-2.803,0.497-4.433l0.704-3.314c0.138-0.552,0.228-1.091,0.27-1.616
		c0.042-0.524,0.062-1.021,0.062-1.492c0-1.243-0.221-2.237-0.663-2.982c-0.442-0.746-1.243-1.119-2.403-1.119
		c-0.967,0-1.954,0.284-2.962,0.849c-1.009,0.566-2.106,1.333-3.293,2.299l-4.433,20.962H256.42l12.304-57.708l12.552-1.698
		l-6.338,29.869l16.363-12.884h8.41l-16.985,11.807c0.938-0.249,1.878-0.373,2.817-0.373c1.574,0,2.948,0.263,4.122,0.787
		c1.173,0.525,2.147,1.243,2.92,2.154c0.773,0.912,1.347,1.968,1.719,3.169c0.373,1.202,0.56,2.479,0.56,3.832
		c0,0.525-0.021,1.057-0.062,1.595c-0.041,0.539-0.131,1.084-0.269,1.636l-0.953,4.226c-0.139,0.47-0.242,0.926-0.311,1.367
		c-0.069,0.442-0.104,0.897-0.104,1.367c0,0.856,0.221,1.595,0.663,2.216c0.441,0.622,1.326,0.932,2.651,0.932
		c0.912,0,1.712-0.179,2.403-0.539c0.69-0.358,1.312-0.87,1.864-1.533c0.552-0.663,1.057-1.456,1.512-2.382
		c0.456-0.925,0.904-1.94,1.346-3.045H307.168z"/>
	<path fill="#A82304" d="M330.243,91.064c-0.442,2.458-1.133,4.488-2.071,6.09c-0.939,1.602-2.058,2.886-3.355,3.853
		c-1.298,0.967-2.734,1.644-4.309,2.03c-1.574,0.387-3.217,0.58-4.93,0.58c-1.988,0-3.791-0.256-5.406-0.766
		c-1.615-0.511-2.997-1.305-4.143-2.382s-2.037-2.465-2.672-4.163c-0.635-1.699-0.953-3.75-0.953-6.152
		c0-1.629,0.166-3.507,0.497-5.634c0.331-2.126,0.855-4.309,1.574-6.545c0.718-2.237,1.67-4.433,2.858-6.587
		c1.187-2.154,2.624-4.081,4.308-5.779c1.685-1.699,3.659-3.066,5.924-4.102c2.264-1.036,4.847-1.553,7.747-1.553
		c1.906,0,3.459,0.228,4.661,0.684c1.201,0.456,2.154,1.056,2.858,1.802s1.187,1.609,1.45,2.589c0.262,0.98,0.394,1.996,0.394,3.045
		c0,2.458-0.539,4.743-1.615,6.856c-1.077,2.113-2.521,3.956-4.329,5.53c-1.81,1.574-3.888,2.845-6.235,3.812
		c-2.348,0.967-4.792,1.533-7.333,1.698c-0.056,0.47-0.104,0.919-0.145,1.347c-0.042,0.428-0.062,0.835-0.062,1.222
		c0,1.354,0.138,2.485,0.414,3.397c0.276,0.911,0.648,1.636,1.119,2.175c0.469,0.539,1.021,0.918,1.657,1.139
		c0.635,0.221,1.325,0.332,2.071,0.332c0.828,0,1.691-0.125,2.589-0.373s1.781-0.58,2.651-0.994s1.719-0.891,2.548-1.429
		S329.58,91.672,330.243,91.064z M315.744,81.909c1.629-0.055,3.19-0.49,4.681-1.305c1.491-0.814,2.81-1.864,3.956-3.148
		c1.146-1.284,2.057-2.755,2.734-4.412c0.676-1.657,1.015-3.369,1.015-5.137c0-1.049-0.152-1.891-0.456-2.527
		c-0.304-0.635-0.856-0.953-1.657-0.953c-1.077,0-2.133,0.532-3.169,1.595c-1.036,1.063-2.003,2.438-2.9,4.122
		c-0.898,1.685-1.713,3.562-2.444,5.634C316.772,77.849,316.185,79.893,315.744,81.909z"/>
	<path fill="#A82304" d="M400.751,70.889c-1.657,1.74-3.798,3.218-6.421,4.433c-2.625,1.216-5.497,2.085-8.617,2.61
		c-0.331,3.922-1.084,7.457-2.257,10.605c-1.174,3.148-2.659,5.828-4.454,8.037c-1.795,2.21-3.853,3.908-6.172,5.096
		c-2.32,1.188-4.778,1.781-7.374,1.781c-1.961,0-3.777-0.242-5.448-0.725c-1.671-0.483-3.107-1.256-4.309-2.32
		c-1.201-1.063-2.14-2.444-2.817-4.143c-0.676-1.699-1.015-3.763-1.015-6.193c0-1.657,0.173-3.542,0.518-5.655
		c0.346-2.113,0.897-4.288,1.657-6.525c0.759-2.237,1.74-4.425,2.941-6.566c1.201-2.14,2.665-4.053,4.391-5.738
		c1.726-1.684,3.721-3.045,5.986-4.081s4.847-1.553,7.747-1.553c7.263,0,10.895,4.516,10.895,13.546v0.083
		c0.138,0.056,0.27,0.083,0.394,0.083c0.125,0,0.296,0,0.518,0c0.994,0,2.064-0.145,3.21-0.435c1.146-0.29,2.299-0.669,3.459-1.14
		c1.16-0.469,2.292-1.015,3.397-1.636c1.104-0.621,2.113-1.249,3.024-1.885L400.751,70.889z M378.67,78.18
		c-0.884-0.221-1.485-0.656-1.802-1.305c-0.318-0.649-0.477-1.401-0.477-2.258c0-1.187,0.241-2.161,0.725-2.921
		c0.483-0.759,1.125-1.318,1.926-1.678c-0.056-0.911-0.152-1.678-0.29-2.299c-0.139-0.622-0.332-1.132-0.58-1.533
		c-0.249-0.4-0.559-0.683-0.932-0.849c-0.373-0.166-0.849-0.249-1.429-0.249c-1.022,0-2.002,0.394-2.941,1.181
		s-1.83,1.83-2.672,3.128c-0.843,1.298-1.616,2.783-2.32,4.453c-0.704,1.671-1.305,3.391-1.802,5.158
		c-0.497,1.768-0.884,3.515-1.16,5.241c-0.276,1.726-0.415,3.293-0.415,4.702s0.076,2.555,0.228,3.438
		c0.151,0.884,0.4,1.582,0.746,2.092c0.345,0.512,0.793,0.864,1.347,1.057c0.552,0.193,1.229,0.29,2.03,0.29
		c1.021,0,2.05-0.456,3.086-1.367c1.036-0.911,1.995-2.154,2.879-3.729c0.884-1.574,1.664-3.438,2.341-5.592
		C377.835,82.986,378.339,80.666,378.67,78.18z"/>
	<path fill="#A82304" d="M397.52,53.987c0.607-3.038,1.498-5.496,2.672-7.374c1.173-1.878,2.479-3.341,3.915-4.392
		c1.436-1.049,2.927-1.753,4.474-2.113c1.546-0.358,3.01-0.538,4.392-0.538c1.27,0,2.506,0.221,3.708,0.663
		c1.201,0.442,2.264,1.063,3.19,1.864c0.925,0.801,1.67,1.761,2.237,2.879c0.566,1.119,0.849,2.369,0.849,3.75
		c0,1.326-0.083,2.485-0.249,3.479h-3.977c0.055-0.469,0.096-0.87,0.124-1.201c0.027-0.332,0.042-0.69,0.042-1.077
		c0-0.966-0.325-1.691-0.974-2.175c-0.649-0.483-1.402-0.725-2.258-0.725c-0.442,0-0.946,0.097-1.512,0.29
		c-0.566,0.193-1.133,0.545-1.699,1.056c-0.566,0.512-1.091,1.222-1.574,2.134c-0.483,0.911-0.863,2.071-1.139,3.48l-1.45,6.711
		h6.214l-0.622,3.397h-6.255l-9.777,45.818c-0.608,3.038-1.485,5.496-2.63,7.374c-1.146,1.878-2.417,3.341-3.812,4.391
		c-1.394,1.049-2.851,1.753-4.371,2.113c-1.518,0.359-2.968,0.539-4.35,0.539c-1.27,0-2.506-0.221-3.708-0.663
		c-1.202-0.442-2.271-1.063-3.211-1.864c-0.938-0.801-1.691-1.761-2.257-2.879c-0.566-1.119-0.85-2.368-0.85-3.749
		c0-1.961,0.38-3.611,1.14-4.951c0.76-1.34,1.802-2.485,3.127-3.438c1.326-0.953,2.873-1.761,4.64-2.424
		c1.768-0.663,3.66-1.298,5.676-1.905L397.52,53.987z M386.666,105.232c-1.326,0.441-2.562,0.932-3.708,1.471
		s-2.134,1.16-2.962,1.864c-0.828,0.704-1.477,1.498-1.947,2.382c-0.469,0.884-0.705,1.892-0.705,3.024
		c0,0.331,0.083,0.663,0.249,0.994c0.166,0.332,0.4,0.628,0.704,0.891c0.304,0.262,0.663,0.483,1.077,0.663
		c0.414,0.18,0.87,0.27,1.367,0.27c0.442,0,0.891-0.104,1.346-0.311c0.456-0.208,0.898-0.566,1.326-1.077
		c0.428-0.512,0.822-1.195,1.181-2.051c0.359-0.856,0.677-1.92,0.953-3.19L386.666,105.232z"/>
</g>
<g>
	<path fill="#A82304" d="M158.09,171.432c-0.801,2.292-1.692,4.281-2.672,5.965c-0.981,1.685-2.003,3.107-3.066,4.267
		c-1.063,1.16-2.154,2.099-3.272,2.817c-1.119,0.719-2.203,1.271-3.252,1.657c-1.05,0.387-2.051,0.648-3.003,0.787
		c-0.953,0.138-1.802,0.207-2.548,0.207c-1.271,0-2.458-0.193-3.562-0.58c-1.105-0.386-2.065-0.994-2.879-1.823
		c-0.815-0.829-1.457-1.877-1.926-3.148c-0.469-1.27-0.704-2.803-0.704-4.598c0-0.773,0.056-1.622,0.166-2.548
		c0.111-0.925,0.276-1.926,0.497-3.003l5.096-23.82h-2.817l0.705-3.397h2.775l2.568-11.724l12.552-1.699l-2.9,13.422h5.096
		l-0.663,3.397h-5.095l-5.427,25.436c-0.139,0.47-0.228,0.932-0.27,1.388s-0.062,0.905-0.062,1.346c0,1.188,0.276,2.009,0.829,2.465
		c0.552,0.456,1.422,0.683,2.61,0.683c0.829,0,1.636-0.186,2.423-0.559s1.512-0.891,2.175-1.554
		c0.663-0.663,1.256-1.456,1.781-2.382c0.524-0.925,0.953-1.926,1.285-3.003H158.09z"/>
	<path fill="#A82304" d="M200.925,171.432c-1.188,3.48-2.465,6.255-3.832,8.327s-2.749,3.653-4.143,4.744
		c-1.395,1.091-2.762,1.802-4.101,2.133c-1.34,0.332-2.576,0.497-3.708,0.497c-1.878,0-3.453-0.269-4.723-0.808
		c-1.271-0.539-2.292-1.256-3.065-2.154c-0.773-0.897-1.333-1.919-1.678-3.065c-0.346-1.146-0.518-2.327-0.518-3.542
		c0-1.436,0.2-3.114,0.601-5.034c0.4-1.919,0.835-3.887,1.305-5.903c0.469-2.016,0.904-3.962,1.305-5.841
		c0.4-1.878,0.601-3.494,0.601-4.847c0-2.9-1.022-4.35-3.066-4.35c-0.773,0-1.491,0.207-2.154,0.621
		c-0.663,0.415-1.271,0.974-1.823,1.678c-0.553,0.705-1.05,1.533-1.492,2.486c-0.442,0.953-0.829,1.968-1.16,3.045l-5.758,27.217
		h-12.221l12.304-57.708l12.552-1.698l-4.557,21.376c0.911-1.021,1.815-1.843,2.713-2.465c0.897-0.622,1.774-1.098,2.63-1.429
		s1.664-0.552,2.424-0.663c0.759-0.11,1.471-0.166,2.133-0.166c1.353,0,2.61,0.18,3.77,0.539c1.16,0.359,2.161,0.926,3.003,1.699
		c0.842,0.773,1.498,1.768,1.968,2.982c0.469,1.216,0.704,2.666,0.704,4.35c0,1.133-0.104,2.354-0.311,3.666
		c-0.207,1.312-0.463,2.651-0.767,4.019c-0.304,1.367-0.628,2.728-0.974,4.081c-0.346,1.354-0.67,2.651-0.973,3.894
		c-0.304,1.243-0.56,2.396-0.767,3.459c-0.207,1.063-0.311,1.996-0.311,2.796c0,1.05,0.241,1.906,0.725,2.568
		c0.483,0.663,1.374,0.994,2.672,0.994c0.911,0,1.712-0.179,2.403-0.539c0.69-0.358,1.311-0.87,1.864-1.533
		c0.552-0.663,1.057-1.456,1.512-2.382c0.456-0.925,0.904-1.94,1.347-3.045H200.925z"/>
	<path fill="#A82304" d="M224,174.58c-0.442,2.458-1.133,4.488-2.071,6.09c-0.939,1.602-2.058,2.886-3.355,3.853
		c-1.298,0.967-2.734,1.644-4.309,2.03c-1.574,0.387-3.217,0.58-4.93,0.58c-1.988,0-3.791-0.256-5.406-0.766
		c-1.615-0.511-2.997-1.305-4.143-2.382s-2.037-2.465-2.672-4.163c-0.635-1.699-0.953-3.75-0.953-6.152
		c0-1.629,0.166-3.507,0.497-5.634c0.331-2.126,0.855-4.309,1.574-6.545c0.718-2.237,1.67-4.433,2.858-6.587
		c1.187-2.154,2.624-4.081,4.308-5.779c1.685-1.699,3.659-3.066,5.924-4.102c2.264-1.036,4.847-1.553,7.747-1.553
		c1.906,0,3.459,0.228,4.661,0.684c1.201,0.456,2.154,1.056,2.858,1.802s1.187,1.609,1.45,2.589c0.262,0.98,0.394,1.996,0.394,3.045
		c0,2.458-0.539,4.743-1.615,6.856c-1.077,2.113-2.521,3.956-4.329,5.53c-1.81,1.574-3.888,2.845-6.235,3.812
		c-2.348,0.967-4.792,1.533-7.333,1.698c-0.056,0.47-0.104,0.919-0.145,1.347c-0.042,0.428-0.062,0.835-0.062,1.222
		c0,1.354,0.138,2.485,0.414,3.397c0.276,0.911,0.648,1.636,1.119,2.175c0.469,0.539,1.021,0.918,1.657,1.139
		c0.635,0.221,1.325,0.332,2.071,0.332c0.828,0,1.691-0.125,2.589-0.373s1.781-0.58,2.651-0.994s1.719-0.891,2.548-1.429
		S223.337,175.188,224,174.58z M209.501,165.425c1.629-0.055,3.19-0.49,4.681-1.305c1.491-0.814,2.81-1.864,3.956-3.148
		c1.146-1.284,2.057-2.755,2.734-4.412c0.676-1.657,1.015-3.369,1.015-5.137c0-1.049-0.152-1.891-0.456-2.527
		c-0.304-0.635-0.856-0.953-1.657-0.953c-1.077,0-2.133,0.532-3.169,1.595c-1.036,1.063-2.003,2.438-2.9,4.122
		c-0.898,1.685-1.713,3.562-2.444,5.634C210.529,161.365,209.942,163.409,209.501,165.425z"/>
	<path fill="#A82304" d="M254.821,186.635l11.517-53.979l12.552-1.657L268.7,178.557c1.546,1.133,3.162,1.698,4.847,1.698
		c1.684,0,3.258-0.524,4.723-1.574c1.463-1.049,2.796-2.479,3.998-4.288c1.202-1.809,2.271-3.928,3.21-6.359
		c0.939-2.43,1.733-5.033,2.382-7.809c0.648-2.775,1.139-5.634,1.471-8.575s0.497-5.848,0.497-8.72c0-2.872-0.297-5.323-0.891-7.354
		c-0.594-2.03-1.437-3.687-2.527-4.971c-1.091-1.284-2.396-2.223-3.915-2.817c-1.519-0.594-3.204-0.891-5.054-0.891
		c-3.148,0-6.076,0.47-8.782,1.409c-2.707,0.939-5.054,2.299-7.042,4.081c-1.989,1.781-3.549,3.942-4.682,6.483
		c-1.132,2.542-1.698,5.427-1.698,8.658c0,1.077,0.062,1.954,0.187,2.631c0.124,0.677,0.255,1.215,0.394,1.616
		c0.138,0.4,0.269,0.711,0.394,0.932c0.124,0.222,0.186,0.415,0.186,0.58c-2.845,0-5.068-0.593-6.669-1.781
		c-1.602-1.187-2.403-3.217-2.403-6.09c0-1.933,0.379-3.832,1.139-5.696c0.759-1.864,1.83-3.625,3.211-5.282
		c1.38-1.657,3.038-3.183,4.971-4.578c1.933-1.394,4.066-2.603,6.4-3.625c2.333-1.021,4.84-1.816,7.519-2.382
		c2.679-0.566,5.454-0.849,8.327-0.849c2.734,0,5.192,0.304,7.374,0.911c2.182,0.608,4.115,1.457,5.8,2.548
		c1.685,1.091,3.128,2.389,4.329,3.894c1.202,1.506,2.182,3.163,2.941,4.971c0.759,1.81,1.318,3.743,1.678,5.8
		c0.359,2.058,0.539,4.164,0.539,6.318c0,3.231-0.29,6.477-0.87,9.735c-0.58,3.259-1.388,6.38-2.423,9.363
		c-1.036,2.982-2.278,5.765-3.729,8.347c-1.45,2.583-3.044,4.826-4.785,6.732c-1.74,1.906-3.598,3.404-5.572,4.495
		c-1.975,1.091-4.012,1.637-6.11,1.637c-1.657,0-3.342-0.359-5.054-1.077c-1.713-0.718-3.48-1.864-5.303-3.438l-0.704,3.397H254.821
		z"/>
	<path fill="#A82304" d="M351.263,171.432c-0.801,2.292-1.671,4.281-2.61,5.965c-0.939,1.685-1.913,3.107-2.92,4.267
		c-1.009,1.16-2.037,2.099-3.086,2.817c-1.05,0.719-2.071,1.271-3.065,1.657c-0.994,0.387-1.947,0.648-2.858,0.787
		c-0.912,0.138-1.74,0.207-2.486,0.207c-2.403,0-4.315-0.656-5.737-1.968c-1.423-1.312-2.286-3.252-2.589-5.82
		c-0.691,0.967-1.45,1.913-2.278,2.837c-0.829,0.926-1.754,1.754-2.776,2.486c-1.022,0.732-2.161,1.326-3.417,1.781
		c-1.257,0.456-2.645,0.684-4.164,0.684c-1.464,0-2.873-0.235-4.226-0.704c-1.354-0.469-2.555-1.243-3.604-2.32
		c-1.05-1.077-1.892-2.486-2.527-4.226c-0.635-1.74-0.953-3.866-0.953-6.38c0-1.933,0.194-4.004,0.58-6.214
		c0.387-2.209,0.98-4.418,1.781-6.628c0.801-2.209,1.802-4.329,3.003-6.359c1.202-2.03,2.61-3.825,4.226-5.386
		c1.616-1.56,3.445-2.803,5.489-3.728c2.043-0.925,4.294-1.388,6.752-1.388c2.403,0,4.149,0.415,5.24,1.243
		c1.091,0.829,1.637,1.851,1.637,3.065v0.622l0.911-4.516h12.221l-6.09,28.833c-0.139,0.47-0.235,0.932-0.29,1.388
		c-0.056,0.456-0.083,0.905-0.083,1.346c0,2.431,1.16,3.646,3.48,3.646c0.829,0,1.595-0.214,2.299-0.643
		c0.704-0.428,1.346-1,1.926-1.719s1.091-1.567,1.533-2.548c0.441-0.98,0.814-2.009,1.119-3.086H351.263z M329.887,152.292
		c0-0.249-0.056-0.559-0.166-0.932c-0.11-0.373-0.297-0.731-0.559-1.077c-0.263-0.345-0.615-0.635-1.056-0.87
		c-0.442-0.234-1.009-0.353-1.699-0.353c-1.188,0-2.313,0.387-3.376,1.16c-1.063,0.773-2.037,1.802-2.92,3.086
		c-0.884,1.284-1.671,2.741-2.361,4.371c-0.69,1.63-1.278,3.308-1.761,5.033c-0.483,1.726-0.849,3.425-1.098,5.095
		c-0.249,1.671-0.373,3.169-0.373,4.495c0,1.63,0.152,2.886,0.456,3.77c0.303,0.884,0.669,1.54,1.098,1.968
		c0.428,0.429,0.891,0.684,1.388,0.767s0.938,0.124,1.326,0.124c0.635,0,1.305-0.158,2.009-0.476
		c0.704-0.317,1.381-0.787,2.03-1.409c0.648-0.622,1.243-1.401,1.781-2.34s0.946-2.03,1.222-3.273L329.887,152.292z"/>
	<path fill="#A82304" d="M366.466,182.244c-0.911,1.05-1.823,1.892-2.734,2.527c-0.912,0.636-1.809,1.125-2.693,1.471
		c-0.884,0.346-1.74,0.58-2.568,0.704c-0.829,0.125-1.616,0.187-2.361,0.187c-1.271,0-2.458-0.193-3.562-0.58
		c-1.105-0.386-2.065-0.994-2.879-1.823c-0.815-0.829-1.457-1.877-1.926-3.148c-0.469-1.27-0.704-2.803-0.704-4.598
		c0-0.773,0.056-1.622,0.166-2.548c0.111-0.925,0.276-1.926,0.497-3.003l5.758-27.217h12.221l-6.089,28.833
		c-0.166,0.718-0.249,1.436-0.249,2.154c0,0.497,0.041,0.967,0.124,1.408c0.083,0.442,0.221,0.836,0.415,1.181
		c0.193,0.346,0.448,0.622,0.766,0.829c0.317,0.207,0.725,0.311,1.222,0.311c0.829,0,1.588-0.186,2.278-0.559
		c0.69-0.373,1.319-0.891,1.885-1.554c0.565-0.663,1.062-1.456,1.491-2.382c0.428-0.925,0.808-1.926,1.139-3.003l5.758-27.217
		h12.304l-10.356,49.215c-0.608,3.038-1.499,5.496-2.672,7.374c-1.174,1.878-2.472,3.341-3.894,4.391
		c-1.423,1.049-2.914,1.753-4.474,2.113c-1.561,0.359-3.031,0.539-4.412,0.539c-1.271,0-2.506-0.221-3.708-0.663
		c-1.201-0.442-2.265-1.063-3.19-1.864c-0.925-0.801-1.671-1.761-2.237-2.879c-0.566-1.119-0.849-2.368-0.849-3.749
		c0-1.988,0.379-3.66,1.139-5.013c0.759-1.354,1.802-2.5,3.127-3.438c1.326-0.939,2.879-1.733,4.661-2.382
		c1.781-0.649,3.693-1.277,5.738-1.885L366.466,182.244z M365.017,188.665c-1.326,0.441-2.568,0.938-3.729,1.492
		c-1.16,0.552-2.161,1.181-3.003,1.885c-0.843,0.704-1.505,1.505-1.988,2.403c-0.484,0.897-0.725,1.912-0.725,3.045
		c0,0.331,0.083,0.663,0.249,0.994s0.4,0.628,0.704,0.891c0.304,0.262,0.663,0.483,1.077,0.663c0.415,0.18,0.87,0.27,1.367,0.27
		c0.414,0,0.863-0.104,1.346-0.311c0.483-0.208,0.953-0.566,1.409-1.077c0.456-0.512,0.876-1.195,1.264-2.051
		c0.386-0.856,0.718-1.92,0.994-3.19L365.017,188.665z"/>
</g>
<g>
	<path fill="#280000" d="M240.653,201.94v3.653H240v-9.069h2.339c1.064,0,1.866,0.233,2.407,0.699s0.811,1.13,0.811,1.993
		c0,0.397-0.074,0.763-0.221,1.096c-0.147,0.333-0.36,0.621-0.638,0.862c-0.278,0.242-0.615,0.43-1.013,0.564
		c-0.397,0.134-0.846,0.202-1.346,0.202H240.653z M240.653,201.415h1.686c0.402,0,0.761-0.056,1.077-0.167
		c0.316-0.111,0.584-0.265,0.804-0.461c0.22-0.196,0.389-0.428,0.506-0.695s0.176-0.559,0.176-0.875
		c0-0.696-0.215-1.232-0.644-1.608c-0.43-0.376-1.069-0.564-1.92-0.564h-1.686V201.415z"/>
	<path fill="#280000" d="M249.344,199.113c0.458,0,0.866,0.078,1.228,0.234c0.361,0.156,0.666,0.377,0.914,0.664
		c0.248,0.286,0.437,0.631,0.567,1.035s0.196,0.855,0.196,1.355s-0.065,0.951-0.196,1.353c-0.13,0.401-0.319,0.746-0.567,1.032
		c-0.248,0.286-0.553,0.506-0.914,0.66c-0.361,0.154-0.77,0.231-1.228,0.231c-0.457,0-0.866-0.077-1.227-0.231
		c-0.361-0.154-0.667-0.374-0.917-0.66s-0.44-0.63-0.571-1.032c-0.13-0.402-0.195-0.853-0.195-1.353s0.065-0.952,0.195-1.355
		s0.321-0.749,0.571-1.035s0.555-0.507,0.917-0.664C248.478,199.191,248.887,199.113,249.344,199.113z M249.344,205.196
		c0.38,0,0.712-0.065,0.997-0.195s0.521-0.317,0.712-0.561c0.19-0.244,0.332-0.537,0.426-0.881c0.094-0.344,0.141-0.729,0.141-1.157
		c0-0.423-0.047-0.808-0.141-1.154c-0.094-0.346-0.236-0.642-0.426-0.888c-0.19-0.246-0.428-0.435-0.712-0.567
		s-0.616-0.199-0.997-0.199s-0.712,0.066-0.997,0.199s-0.521,0.321-0.711,0.567c-0.19,0.246-0.333,0.542-0.429,0.888
		c-0.096,0.346-0.145,0.731-0.145,1.154c0,0.427,0.048,0.813,0.145,1.157c0.096,0.344,0.239,0.638,0.429,0.881
		s0.427,0.431,0.711,0.561S248.964,205.196,249.344,205.196z"/>
	<path fill="#280000" d="M252.953,199.216h0.468c0.06,0,0.109,0.016,0.147,0.048c0.039,0.032,0.064,0.067,0.077,0.105l1.609,5.032
		c0.03,0.098,0.053,0.192,0.071,0.282c0.017,0.09,0.034,0.18,0.051,0.269c0.021-0.089,0.044-0.179,0.07-0.269
		c0.025-0.09,0.056-0.184,0.09-0.282l1.711-5.077c0.03-0.094,0.09-0.141,0.18-0.141h0.25c0.094,0,0.156,0.047,0.186,0.141
		l1.686,5.077c0.064,0.192,0.115,0.378,0.154,0.557c0.017-0.089,0.035-0.18,0.054-0.272c0.02-0.092,0.046-0.187,0.08-0.285
		l1.615-5.032c0.034-0.103,0.107-0.154,0.218-0.154h0.448l-2.134,6.377h-0.448c-0.069,0-0.118-0.045-0.147-0.135l-1.75-5.179
		c-0.021-0.064-0.041-0.128-0.058-0.192c-0.017-0.064-0.032-0.128-0.045-0.192c-0.013,0.064-0.027,0.128-0.042,0.192
		c-0.015,0.064-0.033,0.128-0.055,0.192l-1.769,5.179c-0.025,0.09-0.077,0.135-0.154,0.135h-0.429L252.953,199.216z"/>
	<path fill="#280000" d="M265.701,199.113c0.359,0,0.691,0.062,0.997,0.186s0.57,0.304,0.795,0.542
		c0.224,0.237,0.399,0.529,0.525,0.875s0.189,0.744,0.189,1.192c0,0.094-0.014,0.158-0.042,0.192s-0.072,0.051-0.131,0.051h-4.602
		v0.122c0,0.479,0.056,0.899,0.167,1.262c0.111,0.363,0.27,0.668,0.475,0.914s0.453,0.431,0.743,0.554
		c0.291,0.124,0.616,0.186,0.975,0.186c0.32,0,0.598-0.035,0.833-0.106c0.235-0.07,0.433-0.149,0.593-0.237s0.288-0.167,0.381-0.237
		c0.094-0.07,0.163-0.105,0.205-0.105c0.056,0,0.098,0.021,0.128,0.064l0.167,0.205c-0.103,0.128-0.238,0.248-0.407,0.359
		c-0.169,0.111-0.357,0.206-0.564,0.285c-0.207,0.079-0.429,0.142-0.667,0.189c-0.237,0.047-0.475,0.071-0.714,0.071
		c-0.436,0-0.833-0.076-1.192-0.228c-0.359-0.152-0.667-0.373-0.924-0.664c-0.257-0.291-0.456-0.646-0.596-1.067
		c-0.14-0.421-0.21-0.903-0.21-1.445c0-0.458,0.065-0.879,0.195-1.266s0.318-0.72,0.564-1c0.246-0.28,0.547-0.499,0.903-0.657
		C264.843,199.192,265.248,199.113,265.701,199.113z M265.71,199.568c-0.329,0-0.623,0.051-0.883,0.154s-0.485,0.25-0.675,0.442
		c-0.19,0.192-0.344,0.423-0.461,0.692c-0.117,0.269-0.195,0.57-0.233,0.903h4.198c0-0.342-0.047-0.648-0.141-0.919
		s-0.226-0.501-0.397-0.689c-0.17-0.188-0.375-0.333-0.614-0.433C266.265,199.619,266,199.568,265.71,199.568z"/>
	<path fill="#280000" d="M269.847,205.593v-6.377h0.321c0.072,0,0.125,0.015,0.157,0.045c0.032,0.03,0.05,0.082,0.055,0.154
		l0.051,1.346c0.205-0.517,0.479-0.922,0.82-1.215c0.342-0.292,0.763-0.439,1.263-0.439c0.192,0,0.37,0.021,0.532,0.061
		c0.163,0.041,0.316,0.099,0.462,0.176l-0.083,0.423c-0.013,0.068-0.056,0.103-0.128,0.103c-0.025,0-0.062-0.008-0.109-0.025
		s-0.105-0.037-0.176-0.058c-0.07-0.021-0.157-0.041-0.259-0.058c-0.103-0.017-0.22-0.025-0.353-0.025
		c-0.483,0-0.879,0.149-1.189,0.449c-0.31,0.299-0.561,0.73-0.753,1.294v4.147H269.847z"/>
	<path fill="#280000" d="M277.34,199.113c0.359,0,0.691,0.062,0.997,0.186s0.57,0.304,0.795,0.542
		c0.224,0.237,0.399,0.529,0.525,0.875s0.189,0.744,0.189,1.192c0,0.094-0.014,0.158-0.042,0.192s-0.072,0.051-0.131,0.051h-4.602
		v0.122c0,0.479,0.056,0.899,0.167,1.262c0.111,0.363,0.27,0.668,0.475,0.914s0.453,0.431,0.743,0.554
		c0.291,0.124,0.616,0.186,0.975,0.186c0.32,0,0.598-0.035,0.833-0.106c0.235-0.07,0.433-0.149,0.593-0.237s0.288-0.167,0.381-0.237
		c0.094-0.07,0.163-0.105,0.205-0.105c0.056,0,0.098,0.021,0.128,0.064l0.167,0.205c-0.103,0.128-0.238,0.248-0.407,0.359
		c-0.169,0.111-0.357,0.206-0.564,0.285c-0.207,0.079-0.429,0.142-0.667,0.189c-0.237,0.047-0.475,0.071-0.714,0.071
		c-0.436,0-0.833-0.076-1.192-0.228c-0.359-0.152-0.667-0.373-0.924-0.664c-0.257-0.291-0.456-0.646-0.596-1.067
		c-0.14-0.421-0.21-0.903-0.21-1.445c0-0.458,0.065-0.879,0.195-1.266s0.318-0.72,0.564-1c0.246-0.28,0.547-0.499,0.903-0.657
		C276.482,199.192,276.887,199.113,277.34,199.113z M277.349,199.568c-0.329,0-0.623,0.051-0.883,0.154s-0.485,0.25-0.675,0.442
		c-0.19,0.192-0.344,0.423-0.461,0.692c-0.117,0.269-0.195,0.57-0.233,0.903h4.198c0-0.342-0.047-0.648-0.141-0.919
		s-0.226-0.501-0.397-0.689c-0.17-0.188-0.375-0.333-0.614-0.433C277.904,199.619,277.639,199.568,277.349,199.568z"/>
	<path fill="#280000" d="M286.009,205.593c-0.105,0-0.167-0.056-0.184-0.167l-0.064-1.006c-0.282,0.384-0.613,0.69-0.992,0.917
		c-0.378,0.227-0.803,0.34-1.273,0.34c-0.783,0-1.394-0.271-1.833-0.814c-0.438-0.543-0.658-1.357-0.658-2.442
		c0-0.465,0.061-0.9,0.183-1.304c0.122-0.404,0.302-0.754,0.54-1.051c0.237-0.297,0.528-0.531,0.873-0.702
		c0.345-0.171,0.742-0.256,1.191-0.256c0.432,0,0.806,0.08,1.123,0.24c0.316,0.161,0.59,0.395,0.821,0.702v-3.782h0.609v9.326
		H286.009z M283.669,205.183c0.424,0,0.807-0.109,1.149-0.327c0.342-0.218,0.648-0.521,0.918-0.91v-3.365
		c-0.248-0.363-0.521-0.62-0.818-0.769s-0.635-0.224-1.011-0.224s-0.706,0.068-0.988,0.205c-0.283,0.137-0.519,0.33-0.709,0.58
		s-0.334,0.549-0.43,0.897c-0.096,0.349-0.145,0.732-0.145,1.15c0,0.949,0.176,1.646,0.526,2.093
		C282.511,204.96,283.014,205.183,283.669,205.183z"/>
	<path fill="#280000" d="M291.023,205.593v-9.326h0.609l0.006,4.063c0.282-0.376,0.609-0.673,0.98-0.891
		c0.372-0.218,0.791-0.327,1.256-0.327c0.782,0,1.392,0.271,1.83,0.811c0.438,0.541,0.657,1.354,0.657,2.438
		c0,0.466-0.061,0.901-0.183,1.305c-0.122,0.403-0.302,0.754-0.539,1.051c-0.237,0.297-0.528,0.531-0.873,0.702
		c-0.345,0.171-0.741,0.256-1.19,0.256c-0.445,0-0.828-0.087-1.149-0.26s-0.597-0.428-0.828-0.766l-0.038,0.782
		c-0.013,0.107-0.07,0.16-0.171,0.16H291.023z M293.699,199.601c-0.424,0-0.807,0.109-1.149,0.327
		c-0.343,0.218-0.648,0.521-0.918,0.91v3.365c0.244,0.367,0.513,0.625,0.809,0.772s0.636,0.221,1.021,0.221
		c0.376,0,0.706-0.068,0.988-0.205c0.283-0.137,0.519-0.33,0.709-0.58s0.333-0.549,0.43-0.897c0.096-0.349,0.145-0.732,0.145-1.151
		c0-0.948-0.176-1.646-0.526-2.092C294.857,199.824,294.354,199.601,293.699,199.601z"/>
	<path fill="#280000" d="M299.234,207.644c-0.026,0.06-0.059,0.109-0.1,0.147c-0.041,0.039-0.099,0.058-0.176,0.058h-0.436
		l1.122-2.493l-2.698-6.14h0.506c0.064,0,0.114,0.016,0.15,0.048c0.036,0.032,0.063,0.067,0.08,0.105l2.147,4.961
		c0.025,0.064,0.048,0.129,0.067,0.195c0.02,0.066,0.038,0.134,0.055,0.202c0.021-0.068,0.044-0.136,0.067-0.202
		c0.023-0.066,0.048-0.131,0.074-0.195l2.122-4.961c0.021-0.047,0.051-0.084,0.089-0.112c0.039-0.028,0.082-0.042,0.128-0.042h0.468
		L299.234,207.644z"/>
	<path fill="#280000" d="M307.713,201.491v4.102h-0.654v-9.069h2.314c1.047,0,1.829,0.202,2.346,0.606s0.775,0.997,0.775,1.778
		c0,0.346-0.06,0.663-0.179,0.949s-0.292,0.538-0.516,0.753c-0.224,0.216-0.495,0.394-0.811,0.532
		c-0.316,0.139-0.673,0.229-1.07,0.272c0.103,0.064,0.194,0.149,0.275,0.256l3.122,3.922h-0.571c-0.068,0-0.127-0.013-0.176-0.039
		c-0.049-0.025-0.097-0.068-0.144-0.128l-2.903-3.679c-0.073-0.094-0.151-0.16-0.234-0.199c-0.083-0.038-0.213-0.058-0.388-0.058
		H307.713z M307.713,201.004h1.577c0.402,0,0.762-0.048,1.08-0.145s0.587-0.234,0.808-0.413c0.22-0.18,0.388-0.396,0.503-0.647
		c0.116-0.252,0.173-0.536,0.173-0.853c0-0.645-0.211-1.124-0.635-1.436c-0.423-0.312-1.038-0.468-1.846-0.468h-1.66V201.004z"/>
	<path fill="#280000" d="M317.052,199.113c0.359,0,0.691,0.062,0.997,0.186s0.57,0.304,0.795,0.542
		c0.224,0.237,0.399,0.529,0.525,0.875s0.189,0.744,0.189,1.192c0,0.094-0.014,0.158-0.042,0.192s-0.072,0.051-0.131,0.051h-4.602
		v0.122c0,0.479,0.056,0.899,0.167,1.262c0.111,0.363,0.27,0.668,0.475,0.914s0.453,0.431,0.743,0.554
		c0.291,0.124,0.616,0.186,0.975,0.186c0.32,0,0.598-0.035,0.833-0.106c0.235-0.07,0.433-0.149,0.593-0.237s0.288-0.167,0.381-0.237
		c0.094-0.07,0.163-0.105,0.205-0.105c0.056,0,0.098,0.021,0.128,0.064l0.167,0.205c-0.103,0.128-0.238,0.248-0.407,0.359
		c-0.169,0.111-0.357,0.206-0.564,0.285c-0.207,0.079-0.429,0.142-0.667,0.189c-0.237,0.047-0.475,0.071-0.714,0.071
		c-0.436,0-0.833-0.076-1.192-0.228c-0.359-0.152-0.667-0.373-0.924-0.664c-0.257-0.291-0.456-0.646-0.596-1.067
		c-0.14-0.421-0.21-0.903-0.21-1.445c0-0.458,0.065-0.879,0.195-1.266s0.318-0.72,0.564-1c0.246-0.28,0.547-0.499,0.903-0.657
		C316.194,199.192,316.599,199.113,317.052,199.113z M317.061,199.568c-0.329,0-0.623,0.051-0.883,0.154s-0.485,0.25-0.675,0.442
		c-0.19,0.192-0.344,0.423-0.461,0.692c-0.117,0.269-0.195,0.57-0.233,0.903h4.198c0-0.342-0.047-0.648-0.141-0.919
		s-0.226-0.501-0.397-0.689c-0.17-0.188-0.375-0.333-0.614-0.433C317.616,199.619,317.351,199.568,317.061,199.568z"/>
	<path fill="#280000" d="M325.721,205.593c-0.105,0-0.167-0.056-0.184-0.167l-0.064-1.006c-0.282,0.384-0.613,0.69-0.992,0.917
		c-0.378,0.227-0.803,0.34-1.273,0.34c-0.783,0-1.394-0.271-1.833-0.814c-0.438-0.543-0.658-1.357-0.658-2.442
		c0-0.465,0.061-0.9,0.183-1.304c0.122-0.404,0.302-0.754,0.54-1.051c0.237-0.297,0.528-0.531,0.873-0.702
		c0.345-0.171,0.742-0.256,1.191-0.256c0.432,0,0.806,0.08,1.123,0.24c0.316,0.161,0.59,0.395,0.821,0.702v-3.782h0.609v9.326
		H325.721z M323.38,205.183c0.424,0,0.807-0.109,1.149-0.327c0.342-0.218,0.648-0.521,0.918-0.91v-3.365
		c-0.248-0.363-0.521-0.62-0.818-0.769s-0.635-0.224-1.011-0.224s-0.706,0.068-0.988,0.205c-0.283,0.137-0.519,0.33-0.709,0.58
		s-0.334,0.549-0.43,0.897c-0.096,0.349-0.145,0.732-0.145,1.15c0,0.949,0.176,1.646,0.526,2.093
		C322.223,204.96,322.726,205.183,323.38,205.183z"/>
	<path fill="#280000" d="M332.72,205.593c-0.105,0-0.167-0.056-0.184-0.167l-0.064-1.006c-0.282,0.384-0.613,0.69-0.992,0.917
		c-0.378,0.227-0.803,0.34-1.273,0.34c-0.783,0-1.394-0.271-1.833-0.814c-0.438-0.543-0.658-1.357-0.658-2.442
		c0-0.465,0.061-0.9,0.183-1.304c0.122-0.404,0.302-0.754,0.54-1.051c0.237-0.297,0.528-0.531,0.873-0.702
		c0.345-0.171,0.742-0.256,1.191-0.256c0.432,0,0.806,0.08,1.123,0.24c0.316,0.161,0.59,0.395,0.821,0.702v-3.782h0.609v9.326
		H332.72z M330.379,205.183c0.424,0,0.807-0.109,1.149-0.327c0.342-0.218,0.648-0.521,0.918-0.91v-3.365
		c-0.248-0.363-0.521-0.62-0.818-0.769s-0.635-0.224-1.011-0.224s-0.706,0.068-0.988,0.205c-0.283,0.137-0.519,0.33-0.709,0.58
		s-0.334,0.549-0.43,0.897c-0.096,0.349-0.145,0.732-0.145,1.15c0,0.949,0.176,1.646,0.526,2.093
		C329.222,204.96,329.725,205.183,330.379,205.183z"/>
	<path fill="#280000" d="M336.253,197.018c0,0.077-0.016,0.148-0.048,0.215c-0.032,0.066-0.074,0.125-0.125,0.176
		s-0.111,0.092-0.18,0.122s-0.141,0.045-0.218,0.045c-0.077,0-0.149-0.015-0.218-0.045s-0.128-0.07-0.18-0.122
		s-0.092-0.11-0.122-0.176c-0.03-0.066-0.045-0.138-0.045-0.215s0.015-0.15,0.045-0.221c0.03-0.07,0.07-0.131,0.122-0.183
		s0.111-0.092,0.18-0.122s0.141-0.045,0.218-0.045c0.077,0,0.149,0.015,0.218,0.045s0.128,0.07,0.18,0.122s0.093,0.112,0.125,0.183
		C336.237,196.867,336.253,196.94,336.253,197.018z M335.984,199.216v6.377h-0.609v-6.377H335.984z"/>
	<path fill="#280000" d="M339.977,205.696c-0.432,0-0.767-0.12-1.006-0.359s-0.359-0.609-0.359-1.109v-4.358h-0.917
		c-0.047,0-0.085-0.013-0.116-0.039c-0.03-0.025-0.044-0.062-0.044-0.109v-0.237l1.089-0.077l0.152-2.282
		c0.004-0.039,0.02-0.073,0.047-0.103s0.064-0.045,0.111-0.045h0.286v2.436h2.006v0.455h-2.006v4.326
		c0,0.175,0.022,0.326,0.067,0.452s0.106,0.229,0.186,0.311c0.079,0.082,0.172,0.141,0.279,0.18s0.222,0.058,0.346,0.058
		c0.154,0,0.286-0.022,0.397-0.067c0.111-0.045,0.207-0.094,0.289-0.147c0.081-0.053,0.147-0.103,0.199-0.147
		c0.051-0.045,0.092-0.067,0.122-0.067c0.034,0,0.068,0.021,0.103,0.064l0.167,0.269c-0.162,0.18-0.369,0.324-0.618,0.433
		C340.506,205.641,340.246,205.696,339.977,205.696z"/>
</g>
</svg>
