<?xml version="1.0" encoding="utf-8"?>
<!-- Generator: Adobe Illustrator 16.0.0, SVG Export Plug-In . SVG Version: 6.00 Build 0)  -->
<!DOCTYPE svg PUBLIC "-//W3C//DTD SVG 1.1//EN" "http://www.w3.org/Graphics/SVG/1.1/DTD/svg11.dtd">
<svg version="1.1" id="Layer_1" xmlns="http://www.w3.org/2000/svg" xmlns:xlink="http://www.w3.org/1999/xlink" x="0px" y="0px"
	 width="458.242px" height="234.066px" viewBox="0 0 458.242 234.066" enable-background="new 0 0 458.242 234.066"
	 xml:space="preserve">
<g>
	<g>
		<path fill="#9ACDF7" d="M114.835,15.44c54.201,0,98.297,44.096,98.297,98.297s-44.096,98.297-98.297,98.297
			s-98.297-44.096-98.297-98.297S60.634,15.44,114.835,15.44 M114.835,10.44c-57.049,0-103.297,46.247-103.297,103.297
			c0,57.049,46.248,103.297,103.297,103.297c57.05,0,103.297-46.248,103.297-103.297C218.132,56.687,171.885,10.44,114.835,10.44
			L114.835,10.44z"/>
	</g>
	<g>
		<path fill-rule="evenodd" clip-rule="evenodd" fill="#487699" d="M179.38,109.737c3.152-4.46,4.251-9.482,3.593-14.904
			c-0.392-3.229-1.502-6.29-3.442-8.774c-3.417-4.375-7.965-6.978-13.704-7.24c-4.837-0.221-9.211,1.178-13.002,3.973
			c-2.013,1.484-3.563,3.225-6.172,1.363c-0.308-0.22-0.811-0.151-1.211-0.259c-5.206-1.397-10.496-2.263-15.873-2.667
			c-4.197-0.315-8.382-0.278-12.571,0.059c-1.214,0.097-2.245,0.014-2-1.715c0.114-0.804-0.048-1.671-0.145-2.475
			c-0.592-4.934-0.663-9.838,0.438-14.708c1.058-4.681,5.27-6.95,9.333-3.907c1.037,0.777,2.121,1.498,3.116,2.325
			c3.26,2.708,6.75,4.783,11.21,4.544c0.672-0.036,1.205-0.042,1.079-0.883c-0.465-3.118-0.575-6.26-0.703-9.401
			c-0.016-0.375-0.026-0.674-0.6-0.652c-1.463,0.057-2.523-0.814-3.531-1.727c-4.338-3.927-9.065-6.879-15.263-6.438
			c-4.227,0.3-7.859,1.789-10.786,4.921c-2.819,3.017-4.188,6.708-4.937,10.655c-1.274,6.722-0.707,13.463,0.048,20.186
			c0.095,0.848,0.056,1.004-0.796,1.192c-2.44,0.538-4.903,1.083-7.244,1.936c-3.067,1.117-6.2,2.085-9.146,3.524
			c-2.256,1.102-4.588,2.075-6.749,3.338c-2.574,1.504-5.016,3.237-7.481,4.919c-0.478,0.325-0.724,0.094-1.119-0.072
			c-3.285-1.378-6.653-2.385-9.955-2.209c-4.182,0.154-7.641,1.366-10.851,3.496c-2.935,1.947-4.955,4.708-6.191,7.811
			c-1.67,4.193-1.782,8.597-0.292,13.021c1.405,4.17,3.42,7.812,7.146,10.338c0.382,0.259,0.849,0.48,0.805,1.208
			c-0.303,4.974,0.644,9.701,2.58,14.315c2.01,4.788,5.032,8.767,8.713,12.341c6.631,6.438,14.707,10.315,23.403,12.919
			c6.076,1.819,12.352,2.772,18.727,3.019c3.823,0.147,7.645,0.099,11.441-0.171c3.511-0.25,7.01-0.862,10.472-1.533
			c3.049-0.59,6.089-1.327,9.04-2.282c3.07-0.994,6.09-2.165,9.078-3.413c2.37-0.989,4.672-2.136,6.871-3.396
			c4.611-2.642,8.975-5.663,12.943-9.267c4.279-3.886,7.906-8.256,10.671-13.302c2.549-4.653,4.207-9.599,4.577-14.975
			c0.272-3.956-0.16-7.76-1.11-11.588C179.531,112.131,178.369,111.168,179.38,109.737z M54.441,119.906
			c-2.213-3.524-3.017-7.071-1.513-10.662c2.02-4.823,6.48-6.334,11.281-5.667c0.22,0.03,0.421-0.003,0.477,0.212
			c0.095,0.366-0.193,0.557-0.432,0.769c-1.76,1.563-3.095,3.487-4.481,5.36C57.561,112.909,56.018,116.274,54.441,119.906z
			 M165.521,140.178c-2.956,3.928-6.597,7.101-10.461,10.09c-3.529,2.731-7.419,4.852-11.391,6.768
			c-2.776,1.34-5.7,2.445-8.685,3.369c-3.93,1.217-7.889,2.233-11.947,2.894c-3.009,0.49-6.026,0.825-9.076,0.958
			c-2.621,0.114-5.227,0.102-7.849,0c-2.625-0.103-5.223-0.357-7.802-0.76c-4.523-0.707-8.994-1.704-13.248-3.431
			c-6.489-2.636-12.468-5.978-17.245-11.351c-3.746-4.212-6.084-8.962-6.707-14.449c-0.43-3.783,0.319-7.526,1.67-11.157
			c1.162-3.128,2.666-6.035,4.647-8.69c2.99-4.006,6.654-7.324,10.633-10.335c2.517-1.904,5.204-3.521,7.94-5.052
			c2.086-1.166,4.269-2.181,6.475-3.103c4.337-1.813,8.812-3.223,13.419-4.192c3.854-0.811,7.724-1.431,11.668-1.677
			c3.683-0.229,7.34-0.248,11.027-0.043c4.191,0.233,8.315,0.832,12.364,1.838c6.729,1.674,13.045,4.296,18.732,8.398
			c4.458,3.216,8.085,7.126,10.447,12.046c1.345,2.801,2.175,5.868,2.114,7.975C172.329,128.462,169.723,134.593,165.521,140.178z
			 M173.642,101.434c-3.831-5.233-9.176-8.659-14.646-12.203c4.596-2.439,9.708-2.018,12.519,0.917
			C174.509,93.278,175.081,98.776,173.642,101.434z"/>
		<path fill-rule="evenodd" clip-rule="evenodd" fill="#487699" d="M156.069,72.705c8.376-0.303,15.451-6.658,15.161-16.033
			c-0.252-8.136-6.736-14.967-15.649-14.813c-8.559,0.147-15.714,6.792-15.124,16.575C140.921,66.137,147.469,72.644,156.069,72.705
			z M155.355,47.347c5.836-0.232,10.165,3.863,10.312,9.802c0.258,5.178-4.184,9.894-9.251,10.038
			c-6.245,0.178-10.518-4.373-10.498-9.926C145.938,51.677,150.145,47.554,155.355,47.347z"/>
		<path fill-rule="evenodd" clip-rule="evenodd" fill="#487699" d="M136.588,105.732c-4.717,0.108-9.566,4.291-9.321,9.888
			c-0.015,5.823,4.229,10.035,10.057,9.944c5.482-0.084,9.591-4.384,9.672-9.839C147.079,110.09,142.612,105.594,136.588,105.732z"
			/>
		<path fill-rule="evenodd" clip-rule="evenodd" fill="#487699" d="M103.642,122.375c0.135-5.017-4.084-9.879-9.803-9.928
			c-5.368-0.145-9.792,4.161-9.997,9.231c-0.238,5.888,3.749,10.481,9.933,10.558C98.991,132.302,103.488,128.083,103.642,122.375z"
			/>
		<path fill-rule="evenodd" clip-rule="evenodd" fill="#487699" d="M92.54,147.194c8.667,9.093,19.369,10.99,31.267,8.881
			c9.073-1.608,20.561-10.557,21.944-17.428c-7.552,6.284-16.399,9.126-25.704,10.57C110.776,150.655,101.535,150.422,92.54,147.194
			z"/>
	</g>
</g>
<text transform="matrix(1 0 0 1 176.9224 103.1191)" fill="#A82304" font-family="'Lobster-Regular'" font-size="84.8419">Joke of</text>
<text transform="matrix(1 0 0 1 131.8672 186.6353)" fill="#A82304" font-family="'Lobster-Regular'" font-size="84.8419">the Day</text>
<text transform="matrix(1 0 0 1 238.4614 205.5933)" fill="#280000" font-family="'Lato-Light'" font-size="12.8187">Powered by Reddit</text>
</svg>
