<?xml version="1.0" encoding="utf-8"?>
<!-- Generator: Adobe Illustrator 16.0.0, SVG Export Plug-In . SVG Version: 6.00 Build 0)  -->
<!DOCTYPE svg PUBLIC "-//W3C//DTD SVG 1.1//EN" "http://www.w3.org/Graphics/SVG/1.1/DTD/svg11.dtd">
<svg version="1.1" id="Layer_1" xmlns="http://www.w3.org/2000/svg" xmlns:xlink="http://www.w3.org/1999/xlink" x="0px" y="0px"
	 width="54.856px" height="65.463px" viewBox="0 0 54.856 65.463" enable-background="new 0 0 54.856 65.463" xml:space="preserve">
<g>
	<g>
		<path fill="#0478A5" d="M53.964,39.177c0,0.12-0.012,0.203-0.036,0.25c-1.524,6.381-4.714,11.554-9.572,15.518
			c-4.857,3.964-10.548,5.946-17.071,5.946c-3.477,0-6.839-0.655-10.089-1.964S11.047,55.749,8.5,53.32l-4.607,4.607
			c-0.453,0.452-0.988,0.679-1.607,0.679s-1.155-0.227-1.607-0.679C0.226,57.475,0,56.939,0,56.32v-16
			c0-0.619,0.226-1.155,0.679-1.607c0.452-0.452,0.988-0.679,1.607-0.679h16c0.619,0,1.155,0.227,1.607,0.679
			c0.452,0.452,0.678,0.988,0.678,1.607c0,0.62-0.227,1.155-0.678,1.607L15,46.82c1.69,1.571,3.607,2.786,5.75,3.643
			c2.143,0.857,4.369,1.286,6.679,1.286c3.19,0,6.166-0.773,8.928-2.322c2.762-1.547,4.976-3.678,6.643-6.393
			c0.262-0.405,0.893-1.797,1.893-4.179c0.19-0.547,0.547-0.821,1.071-0.821h6.857c0.309,0,0.577,0.113,0.804,0.339
			C53.851,38.601,53.964,38.868,53.964,39.177z M54.857,10.606v16c0,0.62-0.227,1.155-0.678,1.607
			c-0.453,0.452-0.988,0.678-1.607,0.678h-16c-0.619,0-1.155-0.226-1.607-0.678c-0.453-0.452-0.679-0.988-0.679-1.607
			c0-0.619,0.226-1.154,0.679-1.607l4.929-4.929c-3.524-3.262-7.679-4.893-12.464-4.893c-3.191,0-6.167,0.774-8.929,2.322
			c-2.762,1.548-4.977,3.678-6.643,6.393c-0.262,0.405-0.893,1.798-1.893,4.179c-0.191,0.548-0.548,0.821-1.071,0.821H1.786
			c-0.31,0-0.578-0.113-0.804-0.339c-0.227-0.226-0.339-0.494-0.339-0.803v-0.25c1.547-6.381,4.762-11.554,9.643-15.518
			S20.88,6.035,27.429,6.035c3.476,0,6.857,0.661,10.143,1.982c3.286,1.322,6.202,3.185,8.75,5.589l4.643-4.607
			c0.452-0.452,0.988-0.679,1.607-0.679s1.155,0.227,1.607,0.679C54.63,9.452,54.857,9.987,54.857,10.606z"/>
	</g>
</g>
</svg>
